<svg id="svg" version="1.1" xmlns="http://www.w3.org/2000/svg" xmlns:xlink="http://www.w3.org/1999/xlink" width="400" height="188.73239436619718" viewBox="0, 0, 400,188.73239436619718"><g id="svgg"><path id="path0" d="M309.633 1.499 C 306.079 1.622,305.969 1.672,305.810 3.258 L 305.710 4.247 304.584 4.305 C 303.145 4.379,303.027 4.492,302.870 5.958 L 302.740 7.173 301.667 7.173 C 300.394 7.173,300.142 7.373,300.139 8.391 C 300.134 9.893,300.041 10.005,298.805 10.005 C 297.329 10.005,297.329 10.004,297.183 14.527 L 297.061 18.311 296.006 18.313 C 294.462 18.318,294.491 18.265,294.353 21.296 L 294.231 23.974 293.304 23.974 C 291.654 23.974,291.647 23.986,291.647 26.978 L 291.647 29.591 290.489 29.675 C 288.878 29.792,288.815 29.912,288.815 32.882 L 288.815 35.300 287.626 35.300 C 286.143 35.300,285.984 35.457,285.984 36.923 L 285.984 38.093 283.515 38.159 C 280.698 38.235,280.641 38.266,280.436 39.810 L 280.314 40.727 270.643 40.863 C 265.324 40.937,259.807 41.011,258.383 41.028 C 255.390 41.062,255.268 41.120,255.093 42.598 L 254.980 43.550 252.321 43.676 C 249.311 43.820,249.370 43.787,249.366 45.352 L 249.363 46.437 248.136 46.437 C 247.461 46.437,246.909 46.501,246.908 46.579 C 246.908 46.656,246.360 46.720,245.691 46.720 C 243.948 46.720,243.725 47.140,243.708 50.448 L 243.700 52.100 242.649 52.100 C 240.858 52.100,240.868 52.083,240.868 55.127 L 240.868 57.763 240.255 57.792 C 239.917 57.807,239.403 57.801,239.111 57.778 C 238.035 57.693,238.060 57.501,238.043 65.869 C 238.025 74.974,237.949 74.563,239.637 74.563 L 240.868 74.563 240.889 76.782 C 240.901 78.001,240.893 79.200,240.873 79.445 C 240.850 79.722,240.913 79.844,241.039 79.766 C 241.166 79.687,241.197 79.756,241.123 79.950 C 241.036 80.175,241.101 80.249,241.361 80.221 C 241.557 80.200,242.164 80.193,242.709 80.205 L 243.700 80.227 243.700 81.344 C 243.700 83.030,243.725 83.058,245.230 83.058 L 246.531 83.058 246.531 84.359 C 246.531 85.865,246.559 85.890,248.246 85.890 L 249.363 85.890 249.363 87.191 C 249.363 88.696,249.391 88.721,251.077 88.721 L 252.194 88.721 252.216 89.712 C 252.228 90.257,252.221 90.864,252.200 91.060 C 252.172 91.320,252.246 91.384,252.471 91.298 C 252.664 91.224,252.734 91.255,252.656 91.381 C 252.577 91.509,252.728 91.566,253.071 91.539 C 253.367 91.515,253.929 91.508,254.318 91.524 L 255.026 91.553 255.026 92.662 C 255.026 94.030,255.239 94.240,256.741 94.349 L 257.857 94.430 257.857 95.363 C 257.857 96.775,258.027 96.961,259.457 97.114 L 260.689 97.246 260.689 98.233 C 260.689 99.520,260.933 99.798,262.156 99.905 C 263.417 100.016,263.305 99.800,263.454 102.412 C 263.609 105.120,263.844 105.508,265.352 105.542 L 266.258 105.563 265.127 105.778 C 263.432 106.101,263.472 105.928,263.368 113.475 L 263.281 119.825 262.349 119.914 C 260.563 120.086,260.524 120.354,260.524 132.421 C 260.524 144.516,260.559 144.756,262.374 144.930 C 263.332 145.022,263.332 145.022,263.334 145.706 C 263.335 146.082,263.389 146.708,263.453 147.098 L 263.570 147.806 264.858 147.806 L 266.147 147.806 266.202 149.174 L 266.258 150.543 267.626 150.598 L 268.995 150.654 268.995 151.696 C 268.995 153.285,269.160 153.469,270.584 153.469 L 271.782 153.469 271.914 154.697 C 272.098 156.414,271.235 156.300,284.037 156.299 C 297.531 156.298,296.780 156.406,297.043 154.423 L 297.168 153.484 298.513 153.429 L 299.858 153.374 299.914 152.006 L 299.969 150.637 302.597 150.637 C 305.606 150.637,305.616 150.632,305.616 148.977 L 305.616 148.048 306.776 147.927 C 307.414 147.860,308.482 147.806,309.148 147.806 C 310.835 147.806,311.026 147.665,311.184 146.299 L 311.316 145.163 312.430 145.163 C 313.043 145.163,313.544 145.099,313.545 145.021 C 313.545 144.943,314.105 144.880,314.788 144.880 C 316.307 144.880,316.753 144.489,316.753 143.160 L 316.753 142.331 319.656 142.331 L 322.560 142.331 322.643 143.479 C 322.747 144.924,322.707 144.904,325.743 145.066 L 328.268 145.201 328.268 146.207 C 328.268 147.615,328.511 147.805,330.311 147.807 C 331.108 147.808,332.194 147.861,332.724 147.925 L 333.689 148.041 333.857 149.292 L 334.025 150.543 336.715 150.595 L 339.405 150.647 339.405 151.693 C 339.405 153.287,339.569 153.469,341.002 153.469 L 342.207 153.469 342.340 154.709 C 342.521 156.404,341.693 156.300,355.085 156.300 C 368.554 156.300,367.532 156.447,367.532 154.515 L 367.532 153.485 368.900 153.430 L 370.269 153.374 370.324 152.014 L 370.380 150.653 371.740 150.598 L 373.101 150.543 373.156 149.182 L 373.211 147.822 374.572 147.766 L 375.932 147.711 375.984 145.047 L 376.036 142.382 377.282 142.282 C 378.967 142.147,378.866 142.795,378.812 132.497 C 378.757 122.027,378.871 122.699,377.151 122.699 L 376.056 122.699 375.986 116.140 C 375.903 108.413,375.943 108.547,373.714 108.543 L 373.195 108.542 373.195 105.735 L 373.195 102.928 373.903 102.811 C 374.292 102.747,374.846 102.693,375.134 102.692 C 375.772 102.689,376.026 102.148,376.026 100.790 L 376.026 99.858 376.970 99.858 C 378.157 99.858,378.668 99.419,378.672 98.395 C 378.676 97.400,378.823 97.258,379.994 97.108 C 381.344 96.937,381.463 96.820,381.610 95.522 L 381.733 94.428 382.827 94.304 C 384.136 94.156,384.248 94.039,384.417 92.638 L 384.548 91.553 385.372 91.553 C 386.882 91.553,387.099 91.368,387.250 89.962 L 387.383 88.721 388.370 88.721 C 389.722 88.721,389.969 88.488,390.115 87.077 L 390.236 85.906 391.484 85.850 L 392.732 85.795 392.905 84.435 L 393.078 83.074 394.321 83.019 C 395.552 82.964,395.564 82.958,395.613 82.397 C 395.639 82.086,395.708 81.470,395.766 81.029 L 395.870 80.227 396.761 80.227 C 398.203 80.227,398.490 79.901,398.490 78.261 C 398.490 77.504,398.544 76.362,398.611 75.724 L 398.732 74.563 399.366 74.563 L 400.000 74.563 400.000 66.163 L 400.000 57.763 399.364 57.763 C 398.631 57.763,398.515 57.268,398.468 53.929 C 398.450 52.598,398.393 52.286,398.184 52.366 C 398.041 52.421,397.924 52.383,397.924 52.283 C 397.924 52.182,397.503 52.118,396.989 52.141 C 395.825 52.191,395.826 52.192,395.707 50.714 C 395.599 49.362,395.473 49.269,393.766 49.269 L 393.054 49.269 392.923 47.969 L 392.793 46.670 392.102 46.555 C 391.722 46.493,391.148 46.440,390.827 46.439 C 390.250 46.437,390.242 46.424,390.072 45.163 L 389.901 43.889 388.674 43.769 C 387.999 43.703,386.163 43.640,384.594 43.628 L 381.742 43.605 381.637 42.446 C 381.497 40.899,381.788 40.969,375.444 40.966 C 372.372 40.964,367.433 40.907,364.469 40.838 L 359.080 40.714 358.990 39.786 C 358.852 38.343,358.651 38.236,355.916 38.159 C 354.591 38.121,353.563 38.013,353.563 37.912 C 353.563 37.813,353.499 37.771,353.421 37.819 C 353.344 37.868,353.308 37.461,353.343 36.916 C 353.426 35.609,353.127 35.300,351.783 35.300 L 350.785 35.300 350.652 32.987 C 350.488 30.145,350.369 29.918,348.949 29.741 L 347.900 29.609 347.892 27.783 C 347.877 24.414,347.767 24.166,346.230 24.026 L 345.096 23.924 345.035 21.321 C 344.964 18.299,345.062 18.486,343.474 18.358 L 342.237 18.259 342.237 15.637 L 342.237 13.016 341.753 12.832 C 341.486 12.730,340.849 12.647,340.337 12.647 L 339.405 12.647 339.403 10.429 C 339.399 7.490,339.294 7.285,337.749 7.211 L 336.574 7.155 336.574 6.327 C 336.574 4.446,336.515 4.408,333.326 4.241 L 330.927 4.116 330.872 2.860 L 330.816 1.605 328.551 1.489 C 325.793 1.347,313.845 1.354,309.633 1.499 M322.094 11.519 C 323.524 11.726,324.490 12.159,325.910 13.232 C 326.438 13.630,327.205 14.095,327.616 14.264 C 328.654 14.693,328.980 15.027,329.632 16.328 C 329.944 16.951,330.474 17.801,330.809 18.216 C 331.629 19.232,331.809 19.599,332.444 21.561 C 332.744 22.486,333.331 23.809,333.748 24.501 C 334.166 25.193,334.680 26.356,334.891 27.085 C 335.650 29.705,335.832 30.131,336.560 31.013 C 337.093 31.657,337.489 32.474,337.978 33.934 C 338.351 35.048,339.042 36.597,339.512 37.376 C 339.982 38.155,340.511 39.302,340.688 39.924 C 340.956 40.869,341.202 41.246,342.163 42.190 C 342.797 42.813,343.477 43.603,343.673 43.946 C 343.869 44.289,344.420 44.821,344.898 45.128 C 345.376 45.434,346.115 46.098,346.541 46.603 C 347.205 47.391,347.533 47.597,348.853 48.056 C 349.699 48.351,350.912 48.958,351.548 49.406 C 353.202 50.571,352.430 50.445,363.474 51.351 C 364.721 51.453,367.184 51.836,368.949 52.202 C 370.900 52.607,373.192 52.940,374.799 53.053 C 378.559 53.317,381.822 53.760,382.468 54.094 C 384.134 54.956,387.506 58.117,388.209 59.475 C 390.054 63.043,389.506 71.680,387.333 73.286 C 387.015 73.521,386.463 74.119,386.108 74.613 C 385.752 75.108,385.036 75.775,384.516 76.095 C 383.996 76.415,383.311 77.053,382.994 77.514 C 382.677 77.974,382.083 78.563,381.673 78.821 C 381.263 79.080,380.618 79.722,380.241 80.247 C 379.863 80.773,379.235 81.404,378.844 81.651 C 378.454 81.897,377.809 82.492,377.411 82.972 C 377.013 83.453,376.380 84.004,376.006 84.197 C 375.631 84.391,374.762 85.106,374.075 85.786 C 373.388 86.466,372.740 87.022,372.634 87.022 C 371.779 87.022,366.582 92.686,365.960 94.296 C 365.703 94.958,365.193 95.868,364.825 96.317 C 362.333 99.358,362.368 110.596,364.895 118.498 C 365.642 120.832,365.805 121.612,366.130 124.394 C 366.441 127.057,366.814 128.729,367.436 130.250 C 368.399 132.608,368.041 135.124,366.055 139.950 C 365.658 140.912,363.137 143.486,362.058 144.030 C 361.590 144.266,360.917 144.713,360.561 145.023 C 358.769 146.587,352.674 146.828,350.620 145.417 C 350.266 145.173,349.667 144.762,349.290 144.502 C 348.912 144.243,348.254 143.938,347.827 143.824 C 346.427 143.451,345.177 142.837,344.339 142.111 C 343.886 141.718,342.898 141.104,342.144 140.745 C 341.389 140.387,340.315 139.748,339.758 139.325 C 339.201 138.901,338.362 138.416,337.895 138.246 C 336.207 137.632,335.129 137.091,334.489 136.537 C 334.130 136.227,333.200 135.606,332.421 135.158 C 331.642 134.710,330.728 134.104,330.389 133.810 C 329.188 132.771,329.344 132.817,322.416 131.471 L 319.868 130.975 317.319 131.386 C 311.959 132.249,310.358 132.707,309.206 133.708 C 308.844 134.023,307.740 134.659,306.752 135.123 C 305.764 135.587,304.612 136.243,304.193 136.580 C 303.774 136.918,302.584 137.590,301.550 138.073 C 300.516 138.556,299.415 139.198,299.103 139.499 C 298.792 139.799,298.027 140.267,297.404 140.538 C 295.619 141.313,295.027 141.632,294.304 142.208 C 293.503 142.847,292.600 143.324,291.214 143.843 C 290.654 144.053,289.780 144.522,289.270 144.887 C 284.381 148.389,275.487 145.405,272.849 139.378 C 272.583 138.770,272.149 137.955,271.883 137.567 C 270.787 135.965,270.708 131.927,271.722 129.332 C 272.491 127.365,273.022 124.894,273.431 121.378 C 273.786 118.329,274.097 116.923,274.728 115.501 C 276.793 110.848,276.737 99.914,274.633 97.053 C 274.314 96.619,273.819 95.692,273.533 94.994 C 273.021 93.741,272.391 92.945,270.090 90.647 C 267.762 88.321,266.969 87.604,266.218 87.140 C 265.782 86.871,265.148 86.284,264.811 85.837 C 264.474 85.389,263.830 84.746,263.380 84.407 C 262.931 84.068,262.316 83.451,262.015 83.035 C 261.714 82.619,261.142 82.043,260.743 81.754 C 260.344 81.465,259.648 80.787,259.196 80.247 C 258.744 79.707,258.054 79.102,257.664 78.903 C 257.274 78.704,256.644 78.177,256.264 77.732 C 255.885 77.287,255.074 76.583,254.462 76.168 C 252.665 74.948,250.506 72.144,250.497 71.018 C 250.496 70.885,250.273 70.248,250.000 69.603 C 249.277 67.888,249.279 64.753,250.005 62.462 C 250.281 61.591,250.600 60.580,250.715 60.217 C 251.053 59.144,252.001 57.911,253.610 56.451 C 256.401 53.918,256.810 53.731,260.217 53.427 C 263.491 53.134,267.321 52.684,269.278 52.361 C 270.212 52.207,271.656 51.995,272.487 51.890 C 273.318 51.785,274.684 51.575,275.523 51.424 C 276.362 51.273,278.486 51.060,280.242 50.951 C 284.992 50.655,286.104 50.418,287.942 49.310 C 288.786 48.801,289.978 48.180,290.591 47.930 C 291.279 47.650,292.078 47.113,292.676 46.531 C 293.209 46.012,294.030 45.324,294.500 45.002 C 295.043 44.630,295.576 44.025,295.959 43.347 C 296.290 42.759,296.846 41.960,297.194 41.573 C 297.876 40.813,298.403 39.863,299.020 38.282 C 299.234 37.732,299.739 36.730,300.142 36.055 C 300.545 35.380,301.101 34.148,301.377 33.318 C 301.980 31.505,302.097 31.272,302.900 30.288 C 303.509 29.540,304.050 28.080,304.771 25.237 C 304.981 24.412,305.309 23.698,305.689 23.244 C 306.298 22.515,306.522 22.049,307.410 19.665 C 307.707 18.868,308.237 17.922,308.661 17.432 C 309.066 16.965,309.533 16.313,309.699 15.984 C 310.198 14.997,310.737 14.536,312.166 13.876 C 312.913 13.530,313.854 12.982,314.258 12.658 C 315.843 11.384,318.496 10.999,322.094 11.519 M296.534 68.037 C 296.050 68.366,295.725 68.818,295.411 69.597 C 295.168 70.200,294.807 70.971,294.609 71.310 C 294.302 71.835,294.287 71.972,294.505 72.226 C 294.646 72.390,295.059 73.128,295.422 73.866 C 296.561 76.177,295.155 75.965,310.018 76.074 C 323.939 76.176,323.430 76.137,324.374 77.180 C 324.724 77.567,324.654 77.642,313.331 88.999 C 303.902 98.456,299.676 102.751,299.231 103.331 C 298.584 104.172,298.314 105.621,298.583 106.812 C 299.097 109.090,299.440 109.422,301.706 109.840 C 304.059 110.274,303.277 110.927,318.007 96.226 L 331.059 83.199 331.376 83.682 C 332.440 85.306,332.421 85.038,332.421 98.451 C 332.421 113.298,332.198 112.103,335.177 113.246 L 336.705 113.833 337.819 113.348 C 339.788 112.492,340.086 112.305,340.457 111.692 C 341.047 110.717,341.130 72.319,340.545 70.756 C 340.109 69.590,339.309 68.683,338.188 68.083 L 337.423 67.673 317.319 67.623 L 297.216 67.573 296.534 68.037 " stroke="none" fill="#fcf4e9" fill-rule="evenodd"></path><path id="path1" d="M317.385 13.320 C 316.117 14.907,315.924 15.050,314.856 15.196 C 313.530 15.378,312.978 15.592,312.978 15.927 C 312.978 16.154,312.491 16.637,311.335 17.561 C 311.210 17.661,311.055 18.062,310.990 18.451 C 310.725 20.055,310.094 20.765,308.932 20.765 C 308.362 20.765,308.325 20.896,308.171 23.474 C 308.000 26.322,307.368 27.760,305.918 28.598 C 305.686 28.732,305.542 29.183,305.421 30.143 C 305.214 31.799,304.462 33.315,303.539 33.936 C 302.736 34.476,302.627 34.725,302.606 36.055 C 302.567 38.526,301.952 39.857,300.673 40.240 C 299.898 40.472,299.872 40.524,299.681 42.176 C 299.622 42.687,299.456 43.240,299.313 43.403 C 299.171 43.566,298.995 43.891,298.924 44.125 C 298.810 44.500,297.738 45.493,297.448 45.493 C 297.236 45.493,296.200 46.636,296.085 46.998 C 295.943 47.443,294.930 48.325,294.558 48.325 C 294.411 48.325,294.290 48.401,294.290 48.493 C 294.290 48.752,293.739 48.926,292.511 49.056 L 291.394 49.174 291.096 50.101 C 290.549 51.800,290.691 51.768,282.463 52.091 C 282.344 52.096,282.074 52.391,281.864 52.747 C 280.932 54.326,279.374 54.543,267.673 54.718 L 258.896 54.849 258.282 55.438 C 257.945 55.762,257.669 56.150,257.669 56.299 C 257.669 56.784,256.948 57.242,255.837 57.465 L 254.751 57.683 254.610 58.525 C 254.439 59.546,253.855 60.115,252.802 60.283 L 252.046 60.404 251.907 63.545 C 251.648 69.425,252.104 71.921,253.438 71.921 C 254.016 71.921,254.493 72.609,254.617 73.624 L 254.743 74.658 255.781 74.872 C 257.245 75.174,257.468 75.295,257.600 75.858 C 257.751 76.505,258.773 77.584,259.235 77.584 C 259.782 77.584,261.921 79.044,262.219 79.622 C 262.542 80.249,263.330 81.022,264.182 81.548 C 264.534 81.766,264.876 82.114,264.942 82.322 C 265.099 82.816,266.209 83.918,266.919 84.286 C 267.228 84.445,267.644 84.893,267.843 85.280 C 268.194 85.962,268.704 86.296,269.798 86.560 C 270.384 86.702,271.260 87.641,271.260 88.127 C 271.260 88.686,271.794 89.239,272.452 89.363 C 273.224 89.508,273.879 90.166,274.096 91.015 C 274.606 93.006,274.753 93.392,275.178 93.851 C 275.435 94.129,275.880 94.454,276.166 94.572 C 276.962 94.902,277.138 95.552,277.301 98.768 L 277.452 101.736 278.135 102.535 C 279.683 104.343,279.558 107.409,277.937 107.409 C 277.446 107.409,277.352 108.221,277.242 113.450 C 277.099 120.216,276.859 121.247,275.308 121.759 C 274.854 121.909,274.657 122.104,274.587 122.474 C 274.415 123.376,274.281 136.140,274.425 137.884 L 274.563 139.571 275.507 139.810 C 276.564 140.078,277.112 140.612,277.112 141.372 C 277.112 142.248,277.456 142.467,279.000 142.576 C 280.884 142.709,282.098 143.035,282.666 143.561 C 283.133 143.994,283.133 143.994,284.134 143.657 C 286.505 142.859,287.113 142.707,288.725 142.505 C 290.478 142.287,291.647 141.657,291.647 140.932 C 291.647 140.498,292.533 139.919,293.399 139.788 C 295.050 139.539,295.151 139.494,295.506 138.835 C 295.948 138.014,297.487 137.121,298.741 136.957 C 300.364 136.746,300.519 136.686,300.519 136.269 C 300.519 134.910,302.186 134.042,304.820 134.030 C 305.452 134.027,305.841 133.939,305.883 133.790 C 305.920 133.660,306.050 133.186,306.173 132.737 C 306.462 131.672,307.144 131.377,309.637 131.240 L 311.497 131.137 311.925 130.171 C 312.515 128.837,312.844 128.722,316.659 128.508 C 323.192 128.143,326.480 128.655,327.230 130.156 C 327.437 130.571,327.628 130.945,327.653 130.988 C 327.678 131.030,328.648 131.139,329.809 131.229 C 332.666 131.451,332.990 131.639,333.492 133.365 C 333.642 133.881,333.749 133.942,334.699 134.061 C 336.448 134.279,338.462 135.537,338.462 136.411 C 338.462 136.552,338.498 136.668,338.542 136.668 C 340.987 136.668,344.125 138.098,344.125 139.212 C 344.125 139.430,344.860 139.706,346.134 139.966 C 346.925 140.128,347.344 140.628,347.469 141.562 C 347.526 141.985,347.582 142.333,347.594 142.334 C 347.607 142.336,348.562 142.416,349.718 142.511 C 352.020 142.702,353.166 143.064,353.319 143.650 C 353.451 144.156,356.185 144.227,356.594 143.735 C 357.132 143.086,358.990 142.586,361.303 142.469 C 362.128 142.427,362.154 142.407,362.206 141.765 C 362.326 140.293,362.943 139.689,364.326 139.689 L 364.838 139.689 364.975 136.757 C 365.050 135.145,365.049 131.743,364.974 129.198 L 364.836 124.569 364.343 124.313 C 362.549 123.379,362.112 121.148,362.068 112.695 L 362.057 110.524 361.364 110.146 C 358.928 108.819,358.957 101.659,361.401 100.775 L 362.002 100.558 362.124 98.009 C 362.277 94.815,363.319 92.496,364.600 92.496 C 364.757 92.496,364.924 92.067,365.053 91.338 C 365.321 89.813,365.654 89.333,366.539 89.192 C 367.594 89.023,367.756 88.882,368.000 87.921 C 368.288 86.786,368.549 86.492,369.391 86.350 C 370.614 86.144,370.694 86.087,370.903 85.257 C 371.156 84.253,371.502 83.933,372.808 83.496 C 373.692 83.201,373.859 83.068,373.989 82.555 C 374.155 81.903,375.110 80.982,375.619 80.982 C 375.794 80.982,376.167 80.748,376.447 80.462 C 376.727 80.177,377.246 79.646,377.601 79.283 C 377.955 78.919,378.589 78.367,379.008 78.056 C 379.428 77.744,379.821 77.305,379.881 77.079 C 379.941 76.853,380.224 76.488,380.510 76.267 C 382.168 74.983,382.541 74.752,382.961 74.752 C 383.543 74.752,384.449 73.812,384.621 73.029 C 384.691 72.710,384.888 72.301,385.059 72.122 C 385.230 71.942,385.501 71.547,385.660 71.244 C 385.819 70.941,386.261 70.491,386.643 70.242 C 387.535 69.662,387.622 69.123,387.500 64.905 C 387.398 61.364,387.292 61.071,385.902 60.479 C 385.156 60.161,385.054 59.997,384.796 58.716 L 384.589 57.686 383.327 57.453 C 381.899 57.190,380.665 56.465,380.085 55.549 C 379.586 54.762,379.753 54.777,370.080 54.664 C 359.922 54.544,358.320 54.305,357.602 52.799 L 357.294 52.154 355.476 52.034 C 354.476 51.967,353.046 51.913,352.298 51.912 C 349.514 51.910,348.520 51.444,348.333 50.054 C 348.222 49.225,347.990 49.087,346.702 49.082 C 345.838 49.079,343.944 47.949,343.473 47.154 C 343.086 46.502,342.173 45.589,341.520 45.201 C 340.663 44.692,339.767 43.097,339.625 41.827 L 339.500 40.710 338.556 40.412 C 337.305 40.016,337.015 39.418,336.818 36.825 L 336.668 34.858 335.850 34.586 C 334.580 34.163,334.215 33.230,333.886 29.557 C 333.848 29.129,333.709 28.964,333.270 28.825 C 331.953 28.406,331.415 27.178,331.184 24.062 C 331.046 22.207,330.711 21.595,329.479 20.947 C 328.915 20.651,328.573 19.893,328.360 18.465 C 328.273 17.883,328.154 17.736,327.629 17.563 C 326.868 17.311,326.264 16.697,326.090 15.996 C 325.955 15.450,325.910 15.431,324.098 15.118 C 322.745 14.885,321.307 14.044,320.921 13.261 C 320.442 12.288,318.180 12.326,317.385 13.320 M366.923 40.912 C 367.367 40.952,368.047 40.952,368.433 40.911 C 368.820 40.871,368.457 40.838,367.626 40.839 C 366.796 40.839,366.479 40.873,366.923 40.912 M395.706 50.684 C 395.708 51.100,395.747 51.247,395.792 51.012 C 395.837 50.778,395.835 50.438,395.788 50.257 C 395.741 50.077,395.704 50.269,395.706 50.684 M340.620 66.561 C 342.064 67.053,341.947 65.076,342.008 90.103 C 342.065 113.225,342.063 113.339,341.525 113.978 C 341.346 114.191,341.054 114.626,340.878 114.944 C 340.040 116.457,335.928 117.149,333.931 116.114 C 333.047 115.656,332.043 114.818,332.043 114.539 C 332.043 114.451,331.852 114.120,331.619 113.804 L 331.194 113.230 331.100 99.418 C 331.048 91.822,330.948 85.734,330.878 85.890 C 330.809 86.045,330.698 86.496,330.632 86.891 C 330.473 87.847,330.012 88.266,328.943 88.426 C 328.009 88.566,327.989 88.589,327.800 89.723 C 327.651 90.619,327.188 91.027,326.044 91.270 C 325.298 91.429,325.144 91.536,325.096 91.931 C 324.911 93.437,324.606 93.758,322.983 94.151 C 322.434 94.284,322.313 94.406,322.267 94.867 C 322.133 96.228,321.812 96.546,320.151 96.966 C 319.602 97.105,319.481 97.228,319.436 97.694 C 319.307 99.012,318.698 99.670,317.607 99.670 C 317.032 99.670,316.564 100.137,316.564 100.712 C 316.564 101.763,315.826 102.501,314.776 102.501 C 314.200 102.501,313.733 102.969,313.733 103.544 C 313.733 104.635,313.075 105.243,311.757 105.372 C 311.292 105.418,311.168 105.539,311.029 106.088 C 310.608 107.752,310.338 108.013,308.836 108.201 C 308.485 108.245,308.337 108.416,308.215 108.919 C 307.783 110.700,307.544 110.876,305.256 111.101 C 304.216 111.204,303.850 111.326,303.518 111.680 C 302.989 112.242,302.738 112.243,302.136 111.685 C 301.740 111.317,301.382 111.222,300.056 111.128 C 297.706 110.962,297.577 110.853,297.370 108.872 C 297.261 107.833,297.203 107.724,296.532 107.300 C 295.014 106.342,294.955 104.832,296.406 104.088 C 297.181 103.691,297.249 103.583,297.396 102.517 C 297.638 100.763,298.166 100.241,299.700 100.237 C 300.035 100.236,300.131 100.091,300.233 99.434 C 300.302 98.992,300.402 98.475,300.457 98.284 C 300.574 97.873,301.600 97.404,302.383 97.404 C 302.907 97.404,302.945 97.351,303.070 96.440 C 303.237 95.230,303.650 94.810,304.832 94.653 L 305.762 94.530 305.885 93.600 C 306.042 92.418,306.481 91.979,307.663 91.822 L 308.593 91.698 308.717 90.769 C 308.873 89.587,309.293 89.174,310.503 89.007 C 311.398 88.884,311.468 88.837,311.468 88.354 C 311.468 86.930,311.948 86.388,313.403 86.170 C 314.237 86.045,314.299 85.997,314.299 85.485 C 314.299 84.704,314.768 83.679,315.179 83.562 C 315.370 83.508,315.887 83.407,316.328 83.338 C 317.062 83.224,317.131 83.166,317.131 82.658 C 317.131 81.657,317.599 80.843,318.246 80.717 C 318.567 80.655,319.084 80.555,319.396 80.495 C 319.895 80.398,319.962 80.308,319.962 79.730 C 319.962 78.759,320.418 78.013,321.092 77.883 C 321.405 77.822,321.937 77.709,322.275 77.631 C 322.612 77.553,316.680 77.447,309.092 77.395 L 295.296 77.301 294.195 76.546 C 291.261 74.534,290.952 68.850,293.696 67.378 C 294.020 67.205,294.424 66.948,294.592 66.808 C 294.761 66.668,295.293 66.496,295.774 66.426 C 297.206 66.218,339.989 66.347,340.620 66.561 " stroke="none" fill="#fcb454" fill-rule="evenodd"></path><path id="path2" d="M315.919 11.706 C 315.409 11.905,314.661 12.334,314.258 12.658 C 313.854 12.982,312.913 13.530,312.166 13.876 C 310.737 14.536,310.198 14.997,309.699 15.984 C 309.533 16.313,309.066 16.965,308.661 17.432 C 308.237 17.922,307.707 18.868,307.410 19.665 C 306.522 22.049,306.298 22.515,305.689 23.244 C 305.309 23.698,304.981 24.412,304.771 25.237 C 304.050 28.080,303.509 29.540,302.900 30.288 C 302.097 31.272,301.980 31.505,301.377 33.318 C 301.101 34.148,300.545 35.380,300.142 36.055 C 299.739 36.730,299.234 37.732,299.020 38.282 C 298.403 39.863,297.876 40.813,297.194 41.573 C 296.846 41.960,296.290 42.759,295.959 43.347 C 295.576 44.025,295.043 44.630,294.500 45.002 C 294.030 45.324,293.209 46.012,292.676 46.531 C 292.078 47.113,291.279 47.650,290.591 47.930 C 289.978 48.180,288.786 48.801,287.942 49.310 C 286.104 50.418,284.992 50.655,280.242 50.951 C 278.486 51.060,276.362 51.273,275.523 51.424 C 274.684 51.575,273.318 51.785,272.487 51.890 C 271.656 51.995,270.212 52.207,269.278 52.361 C 267.321 52.684,263.491 53.134,260.217 53.427 C 256.810 53.731,256.401 53.918,253.610 56.451 C 252.001 57.911,251.053 59.144,250.715 60.217 C 250.600 60.580,250.281 61.591,250.005 62.462 C 249.279 64.753,249.277 67.888,250.000 69.603 C 250.273 70.248,250.496 70.885,250.497 71.018 C 250.506 72.144,252.665 74.948,254.462 76.168 C 255.074 76.583,255.885 77.287,256.264 77.732 C 256.644 78.177,257.274 78.704,257.664 78.903 C 258.054 79.102,258.744 79.707,259.196 80.247 C 259.648 80.787,260.344 81.465,260.743 81.754 C 261.142 82.043,261.714 82.619,262.015 83.035 C 262.316 83.451,262.931 84.068,263.380 84.407 C 263.830 84.746,264.474 85.389,264.811 85.837 C 265.148 86.284,265.782 86.871,266.218 87.140 C 266.969 87.604,267.762 88.321,270.090 90.647 C 272.391 92.945,273.021 93.741,273.533 94.994 C 273.819 95.692,274.314 96.619,274.633 97.053 C 276.737 99.914,276.793 110.848,274.728 115.501 C 274.097 116.923,273.786 118.329,273.431 121.378 C 273.022 124.894,272.491 127.365,271.722 129.332 C 270.708 131.927,270.787 135.965,271.883 137.567 C 272.149 137.955,272.583 138.770,272.849 139.378 C 273.959 141.912,276.029 143.829,279.533 145.564 C 282.118 146.845,287.012 146.505,289.270 144.887 C 289.780 144.522,290.654 144.053,291.214 143.843 C 292.600 143.324,293.503 142.847,294.304 142.208 C 295.027 141.632,295.619 141.313,297.404 140.538 C 298.027 140.267,298.792 139.799,299.103 139.499 C 299.415 139.198,300.516 138.556,301.550 138.073 C 302.584 137.590,303.774 136.918,304.193 136.580 C 304.612 136.243,305.764 135.587,306.752 135.123 C 307.740 134.659,308.844 134.023,309.206 133.708 C 310.358 132.707,311.959 132.249,317.319 131.386 L 319.868 130.975 322.416 131.471 C 329.344 132.817,329.188 132.771,330.389 133.810 C 330.728 134.104,331.642 134.710,332.421 135.158 C 333.200 135.606,334.130 136.227,334.489 136.537 C 335.129 137.091,336.207 137.632,337.895 138.246 C 338.362 138.416,339.201 138.901,339.758 139.325 C 340.315 139.748,341.389 140.387,342.144 140.745 C 342.898 141.104,343.886 141.718,344.339 142.111 C 345.177 142.837,346.427 143.451,347.827 143.824 C 348.254 143.938,348.912 144.243,349.290 144.502 C 349.667 144.762,350.266 145.173,350.620 145.417 C 352.674 146.828,358.769 146.587,360.561 145.023 C 360.917 144.713,361.590 144.266,362.058 144.030 C 363.137 143.486,365.658 140.912,366.055 139.950 C 368.041 135.124,368.399 132.608,367.436 130.250 C 366.814 128.729,366.441 127.057,366.130 124.394 C 365.805 121.612,365.642 120.832,364.895 118.498 C 362.368 110.596,362.333 99.358,364.825 96.317 C 365.193 95.868,365.703 94.958,365.960 94.296 C 366.582 92.686,371.779 87.022,372.634 87.022 C 372.740 87.022,373.388 86.466,374.075 85.786 C 374.762 85.106,375.631 84.391,376.006 84.197 C 376.380 84.004,377.013 83.453,377.411 82.972 C 377.809 82.492,378.454 81.897,378.844 81.651 C 379.235 81.404,379.863 80.773,380.241 80.247 C 380.618 79.722,381.263 79.080,381.673 78.821 C 382.083 78.563,382.677 77.974,382.994 77.514 C 383.311 77.053,383.996 76.415,384.516 76.095 C 385.036 75.775,385.752 75.108,386.108 74.613 C 386.463 74.119,387.015 73.521,387.333 73.286 C 389.506 71.680,390.054 63.043,388.209 59.475 C 387.506 58.117,384.134 54.956,382.468 54.094 C 381.822 53.760,378.559 53.317,374.799 53.053 C 373.192 52.940,370.900 52.607,368.949 52.202 C 367.184 51.836,364.721 51.453,363.474 51.351 C 352.430 50.445,353.202 50.571,351.548 49.406 C 350.912 48.958,349.699 48.351,348.853 48.056 C 347.533 47.597,347.205 47.391,346.541 46.603 C 346.115 46.098,345.376 45.434,344.898 45.128 C 344.420 44.821,343.869 44.289,343.673 43.946 C 343.477 43.603,342.797 42.813,342.163 42.190 C 341.202 41.246,340.956 40.869,340.688 39.924 C 340.511 39.302,339.982 38.155,339.512 37.376 C 339.042 36.597,338.351 35.048,337.978 33.934 C 337.489 32.474,337.093 31.657,336.560 31.013 C 335.832 30.131,335.650 29.705,334.891 27.085 C 334.680 26.356,334.166 25.193,333.748 24.501 C 333.331 23.809,332.744 22.486,332.444 21.561 C 331.809 19.599,331.629 19.232,330.809 18.216 C 330.474 17.801,329.944 16.951,329.632 16.328 C 328.980 15.027,328.654 14.693,327.616 14.264 C 327.205 14.095,326.438 13.630,325.910 13.232 C 323.466 11.387,318.630 10.648,315.919 11.706 M320.921 13.261 C 321.307 14.044,322.745 14.885,324.098 15.118 C 325.910 15.431,325.955 15.450,326.090 15.996 C 326.264 16.697,326.868 17.311,327.629 17.563 C 328.154 17.736,328.273 17.883,328.360 18.465 C 328.573 19.893,328.915 20.651,329.479 20.947 C 330.711 21.595,331.046 22.207,331.184 24.062 C 331.415 27.178,331.953 28.406,333.270 28.825 C 333.709 28.964,333.848 29.129,333.886 29.557 C 334.215 33.230,334.580 34.163,335.850 34.586 L 336.668 34.858 336.818 36.825 C 337.015 39.418,337.305 40.016,338.556 40.412 L 339.500 40.710 339.625 41.827 C 339.767 43.097,340.663 44.692,341.520 45.201 C 342.173 45.589,343.086 46.502,343.473 47.154 C 343.944 47.949,345.838 49.079,346.702 49.082 C 347.990 49.087,348.222 49.225,348.333 50.054 C 348.520 51.444,349.514 51.910,352.298 51.912 C 353.046 51.913,354.476 51.967,355.476 52.034 L 357.294 52.154 357.602 52.799 C 358.320 54.305,359.922 54.544,370.080 54.664 C 379.753 54.777,379.586 54.762,380.085 55.549 C 380.665 56.465,381.899 57.190,383.327 57.453 L 384.589 57.686 384.796 58.716 C 385.054 59.997,385.156 60.161,385.902 60.479 C 387.292 61.071,387.398 61.364,387.500 64.905 C 387.622 69.123,387.535 69.662,386.643 70.242 C 386.261 70.491,385.819 70.941,385.660 71.244 C 385.501 71.547,385.230 71.942,385.059 72.122 C 384.888 72.301,384.691 72.710,384.621 73.029 C 384.449 73.812,383.543 74.752,382.961 74.752 C 382.541 74.752,382.168 74.983,380.510 76.267 C 380.224 76.488,379.941 76.853,379.881 77.079 C 379.821 77.305,379.428 77.744,379.008 78.056 C 378.589 78.367,377.955 78.919,377.601 79.283 C 377.246 79.646,376.727 80.177,376.447 80.462 C 376.167 80.748,375.794 80.982,375.619 80.982 C 375.110 80.982,374.155 81.903,373.989 82.555 C 373.859 83.068,373.692 83.201,372.808 83.496 C 371.502 83.933,371.156 84.253,370.903 85.257 C 370.694 86.087,370.614 86.144,369.391 86.350 C 368.549 86.492,368.288 86.786,368.000 87.921 C 367.756 88.882,367.594 89.023,366.539 89.192 C 365.654 89.333,365.321 89.813,365.053 91.338 C 364.924 92.067,364.757 92.496,364.600 92.496 C 363.319 92.496,362.277 94.815,362.124 98.009 L 362.002 100.558 361.401 100.775 C 358.957 101.659,358.928 108.819,361.364 110.146 L 362.057 110.524 362.068 112.695 C 362.112 121.148,362.549 123.379,364.343 124.313 L 364.836 124.569 364.974 129.198 C 365.049 131.743,365.050 135.145,364.975 136.757 L 364.838 139.689 364.326 139.689 C 362.943 139.689,362.326 140.293,362.206 141.765 C 362.154 142.407,362.128 142.427,361.303 142.469 C 358.990 142.586,357.132 143.086,356.594 143.735 C 356.185 144.227,353.451 144.156,353.319 143.650 C 353.166 143.064,352.020 142.702,349.718 142.511 C 348.562 142.416,347.607 142.336,347.594 142.334 C 347.582 142.333,347.526 141.985,347.469 141.562 C 347.344 140.628,346.925 140.128,346.134 139.966 C 344.860 139.706,344.125 139.430,344.125 139.212 C 344.125 138.098,340.987 136.668,338.542 136.668 C 338.498 136.668,338.462 136.552,338.462 136.411 C 338.462 135.537,336.448 134.279,334.699 134.061 C 333.749 133.942,333.642 133.881,333.492 133.365 C 332.990 131.639,332.666 131.451,329.809 131.229 C 328.648 131.139,327.678 131.030,327.653 130.988 C 327.628 130.945,327.437 130.571,327.230 130.156 C 326.480 128.655,323.192 128.143,316.659 128.508 C 312.844 128.722,312.515 128.837,311.925 130.171 L 311.497 131.137 309.637 131.240 C 307.144 131.377,306.462 131.672,306.173 132.737 C 306.050 133.186,305.920 133.660,305.883 133.790 C 305.841 133.939,305.452 134.027,304.820 134.030 C 302.186 134.042,300.519 134.910,300.519 136.269 C 300.519 136.686,300.364 136.746,298.741 136.957 C 297.487 137.121,295.948 138.014,295.506 138.835 C 295.151 139.494,295.050 139.539,293.399 139.788 C 292.533 139.919,291.647 140.498,291.647 140.932 C 291.647 141.657,290.478 142.287,288.725 142.505 C 287.113 142.707,286.505 142.859,284.134 143.657 C 283.133 143.994,283.133 143.994,282.666 143.561 C 282.098 143.035,280.884 142.709,279.000 142.576 C 277.456 142.467,277.112 142.248,277.112 141.372 C 277.112 140.612,276.564 140.078,275.507 139.810 L 274.563 139.571 274.425 137.884 C 274.281 136.140,274.415 123.376,274.587 122.474 C 274.657 122.104,274.854 121.909,275.308 121.759 C 276.859 121.247,277.099 120.216,277.242 113.450 C 277.352 108.221,277.446 107.409,277.937 107.409 C 279.558 107.409,279.683 104.343,278.135 102.535 L 277.452 101.736 277.301 98.768 C 277.138 95.552,276.962 94.902,276.166 94.572 C 275.880 94.454,275.435 94.129,275.178 93.851 C 274.753 93.392,274.606 93.006,274.096 91.015 C 273.879 90.166,273.224 89.508,272.452 89.363 C 271.794 89.239,271.260 88.686,271.260 88.127 C 271.260 87.641,270.384 86.702,269.798 86.560 C 268.704 86.296,268.194 85.962,267.843 85.280 C 267.644 84.893,267.228 84.445,266.919 84.286 C 266.209 83.918,265.099 82.816,264.942 82.322 C 264.876 82.114,264.534 81.766,264.182 81.548 C 263.330 81.022,262.542 80.249,262.219 79.622 C 261.921 79.044,259.782 77.584,259.235 77.584 C 258.773 77.584,257.751 76.505,257.600 75.858 C 257.468 75.295,257.245 75.174,255.781 74.872 L 254.743 74.658 254.617 73.624 C 254.493 72.609,254.016 71.921,253.438 71.921 C 252.104 71.921,251.648 69.425,251.907 63.545 L 252.046 60.404 252.802 60.283 C 253.855 60.115,254.439 59.546,254.610 58.525 L 254.751 57.683 255.837 57.465 C 256.948 57.242,257.669 56.784,257.669 56.299 C 257.669 56.150,257.945 55.762,258.282 55.438 L 258.896 54.849 267.673 54.718 C 279.374 54.543,280.932 54.326,281.864 52.747 C 282.074 52.391,282.344 52.096,282.463 52.091 C 290.691 51.768,290.549 51.800,291.096 50.101 L 291.394 49.174 292.511 49.056 C 293.739 48.926,294.290 48.752,294.290 48.493 C 294.290 48.401,294.411 48.325,294.558 48.325 C 294.930 48.325,295.943 47.443,296.085 46.998 C 296.200 46.636,297.236 45.493,297.448 45.493 C 297.738 45.493,298.810 44.500,298.924 44.125 C 298.995 43.891,299.171 43.566,299.313 43.403 C 299.456 43.240,299.622 42.687,299.681 42.176 C 299.872 40.524,299.898 40.472,300.673 40.240 C 301.952 39.857,302.567 38.526,302.606 36.055 C 302.627 34.725,302.736 34.476,303.539 33.936 C 304.462 33.315,305.214 31.799,305.421 30.143 C 305.542 29.183,305.686 28.732,305.918 28.598 C 307.368 27.760,308.000 26.322,308.171 23.474 C 308.325 20.896,308.362 20.765,308.932 20.765 C 310.094 20.765,310.725 20.055,310.990 18.451 C 311.055 18.062,311.210 17.661,311.335 17.561 C 312.491 16.637,312.978 16.154,312.978 15.927 C 312.978 15.592,313.530 15.378,314.856 15.196 C 315.924 15.050,316.117 14.907,317.385 13.320 C 318.180 12.326,320.442 12.288,320.921 13.261 M295.774 66.426 C 295.293 66.496,294.761 66.668,294.592 66.808 C 294.424 66.948,294.020 67.205,293.696 67.378 C 290.952 68.850,291.261 74.534,294.195 76.546 L 295.296 77.301 309.092 77.395 C 316.680 77.447,322.612 77.553,322.275 77.631 C 321.937 77.709,321.405 77.822,321.092 77.883 C 320.418 78.013,319.962 78.759,319.962 79.730 C 319.962 80.308,319.895 80.398,319.396 80.495 C 319.084 80.555,318.567 80.655,318.246 80.717 C 317.599 80.843,317.131 81.657,317.131 82.658 C 317.131 83.166,317.062 83.224,316.328 83.338 C 315.887 83.407,315.370 83.508,315.179 83.562 C 314.768 83.679,314.299 84.704,314.299 85.485 C 314.299 85.997,314.237 86.045,313.403 86.170 C 311.948 86.388,311.468 86.930,311.468 88.354 C 311.468 88.837,311.398 88.884,310.503 89.007 C 309.293 89.174,308.873 89.587,308.717 90.769 L 308.593 91.698 307.663 91.822 C 306.481 91.979,306.042 92.418,305.885 93.600 L 305.762 94.530 304.832 94.653 C 303.650 94.810,303.237 95.230,303.070 96.440 C 302.945 97.351,302.907 97.404,302.383 97.404 C 301.600 97.404,300.574 97.873,300.457 98.284 C 300.402 98.475,300.302 98.992,300.233 99.434 C 300.131 100.091,300.035 100.236,299.700 100.237 C 298.166 100.241,297.638 100.763,297.396 102.517 C 297.249 103.583,297.181 103.691,296.406 104.088 C 294.955 104.832,295.014 106.342,296.532 107.300 C 297.203 107.724,297.261 107.833,297.370 108.872 C 297.577 110.853,297.706 110.962,300.056 111.128 C 301.382 111.222,301.740 111.317,302.136 111.685 C 302.738 112.243,302.989 112.242,303.518 111.680 C 303.850 111.326,304.216 111.204,305.256 111.101 C 307.544 110.876,307.783 110.700,308.215 108.919 C 308.337 108.416,308.485 108.245,308.836 108.201 C 310.338 108.013,310.608 107.752,311.029 106.088 C 311.168 105.539,311.292 105.418,311.757 105.372 C 313.075 105.243,313.733 104.635,313.733 103.544 C 313.733 102.969,314.200 102.501,314.776 102.501 C 315.826 102.501,316.564 101.763,316.564 100.712 C 316.564 100.137,317.032 99.670,317.607 99.670 C 318.698 99.670,319.307 99.012,319.436 97.694 C 319.481 97.228,319.602 97.105,320.151 96.966 C 321.812 96.546,322.133 96.228,322.267 94.867 C 322.313 94.406,322.434 94.284,322.983 94.151 C 324.606 93.758,324.911 93.437,325.096 91.931 C 325.144 91.536,325.298 91.429,326.044 91.270 C 327.188 91.027,327.651 90.619,327.800 89.723 C 327.989 88.589,328.009 88.566,328.943 88.426 C 330.012 88.266,330.473 87.847,330.632 86.891 C 330.698 86.496,330.809 86.045,330.878 85.890 C 330.948 85.734,331.048 91.822,331.100 99.418 L 331.194 113.230 331.619 113.804 C 331.852 114.120,332.043 114.451,332.043 114.539 C 332.043 114.818,333.047 115.656,333.931 116.114 C 335.928 117.149,340.040 116.457,340.878 114.944 C 341.054 114.626,341.346 114.191,341.525 113.978 C 342.063 113.339,342.065 113.225,342.008 90.103 C 341.947 65.076,342.064 67.053,340.620 66.561 C 339.989 66.347,297.206 66.218,295.774 66.426 M338.188 68.083 C 339.309 68.683,340.109 69.590,340.545 70.756 C 341.130 72.319,341.047 110.717,340.457 111.692 C 340.086 112.305,339.788 112.492,337.819 113.348 L 336.705 113.833 335.177 113.246 C 332.198 112.103,332.421 113.298,332.421 98.451 C 332.421 85.038,332.440 85.306,331.376 83.682 L 331.059 83.199 318.007 96.226 C 303.277 110.927,304.059 110.274,301.706 109.840 C 299.440 109.422,299.097 109.090,298.583 106.812 C 298.314 105.621,298.584 104.172,299.231 103.331 C 299.676 102.751,303.902 98.456,313.331 88.999 C 324.654 77.642,324.724 77.567,324.374 77.180 C 323.430 76.137,323.939 76.176,310.018 76.074 C 295.155 75.965,296.561 76.177,295.422 73.866 C 295.059 73.128,294.646 72.390,294.505 72.226 C 294.287 71.972,294.302 71.835,294.609 71.310 C 294.807 70.971,295.168 70.200,295.411 69.597 C 295.725 68.818,296.050 68.366,296.534 68.037 L 297.216 67.573 317.319 67.623 L 337.423 67.673 338.188 68.083 " stroke="none" fill="#fcb45c" fill-rule="evenodd"></path><path id="path3" d="M209.875 26.097 C 209.855 40.451,209.808 51.688,209.770 51.068 C 209.681 49.633,209.523 49.457,208.320 49.457 C 207.098 49.457,206.890 49.249,206.890 48.027 C 206.890 46.726,206.817 46.689,203.917 46.531 L 201.416 46.395 201.413 45.331 C 201.409 43.926,201.343 43.856,199.882 43.700 L 198.632 43.567 198.508 42.513 C 198.323 40.941,198.370 40.963,195.191 40.963 C 193.662 40.963,191.898 40.909,191.271 40.844 L 190.132 40.725 190.046 39.683 C 189.905 37.987,191.348 38.116,173.231 38.174 L 157.211 38.226 156.850 38.671 C 156.617 38.959,156.489 39.411,156.489 39.945 C 156.489 40.717,156.453 40.776,155.970 40.800 C 155.684 40.814,154.431 40.877,153.185 40.941 L 150.920 41.057 150.871 41.718 C 150.844 42.081,150.779 42.642,150.726 42.963 L 150.631 43.548 148.045 43.678 C 145.124 43.825,145.170 43.799,145.166 45.324 L 145.163 46.382 142.949 46.514 C 140.081 46.685,139.832 46.807,139.611 48.138 C 139.408 49.353,139.303 49.450,138.178 49.457 C 136.968 49.466,136.801 49.633,136.707 50.936 L 136.625 52.068 135.549 52.193 C 134.096 52.362,134.010 52.442,133.891 53.751 L 133.788 54.888 132.697 55.012 C 131.174 55.184,131.112 55.303,131.033 58.169 L 130.967 60.595 129.797 60.595 C 128.336 60.595,128.174 60.756,128.174 62.211 L 128.174 63.374 127.026 63.478 C 125.388 63.626,125.353 63.731,125.347 68.570 L 125.342 71.921 124.122 71.921 C 122.487 71.921,122.511 71.853,122.511 76.509 L 122.511 80.367 121.532 80.461 C 119.654 80.642,119.600 81.096,119.707 95.818 C 119.783 106.182,119.668 105.521,121.388 105.521 L 122.485 105.521 122.545 111.003 C 122.613 117.225,122.500 116.840,124.257 116.845 L 125.342 116.848 125.342 119.314 C 125.342 122.432,125.381 122.511,126.939 122.511 L 128.145 122.511 128.207 125.138 C 128.278 128.180,128.204 128.039,129.785 128.140 L 131.005 128.218 131.005 129.385 C 131.005 130.846,131.165 131.005,132.639 131.005 L 133.820 131.005 133.876 132.374 L 133.931 133.742 135.292 133.798 L 136.652 133.853 136.707 135.213 L 136.763 136.574 138.131 136.629 L 139.500 136.685 139.500 137.908 C 139.500 139.323,139.711 139.500,141.400 139.500 L 142.331 139.500 142.331 140.716 C 142.331 142.131,142.359 142.158,143.956 142.286 L 145.163 142.383 145.163 143.382 C 145.163 144.840,145.281 144.905,148.245 145.063 L 150.781 145.199 150.872 146.139 C 151.029 147.779,151.532 147.876,160.406 147.977 L 161.963 147.994 161.963 148.832 C 161.963 149.292,162.047 149.889,162.149 150.158 L 162.335 150.648 174.390 150.595 C 187.918 150.536,186.970 150.651,187.170 149.044 L 187.295 148.044 188.437 147.925 C 189.065 147.859,190.649 147.797,191.958 147.787 C 195.354 147.760,195.374 147.750,195.654 145.907 L 195.756 145.234 198.229 145.049 C 201.062 144.837,201.227 144.739,201.227 143.266 L 201.227 142.386 202.579 142.273 C 204.148 142.141,204.240 142.049,204.244 140.611 L 204.247 139.551 205.485 139.452 C 206.993 139.331,206.910 139.414,207.031 137.906 L 207.130 136.668 208.190 136.665 C 209.425 136.662,209.652 136.554,209.771 135.913 C 209.819 135.654,209.870 137.577,209.885 140.187 C 209.914 145.570,209.772 145.163,211.616 145.163 L 212.725 145.163 212.780 146.437 L 212.836 147.711 215.573 147.841 C 217.079 147.913,219.542 147.913,221.048 147.841 L 223.785 147.711 223.841 146.437 L 223.896 145.163 225.005 145.163 C 226.692 145.163,226.711 145.145,226.711 143.561 L 226.711 142.189 227.756 142.103 C 228.994 142.000,229.160 141.865,229.368 140.789 C 229.646 139.352,229.578 5.461,229.299 4.908 C 229.089 4.492,228.922 4.429,227.886 4.380 L 226.711 4.324 226.711 2.162 L 226.711 0.000 218.311 0.000 L 209.910 0.000 209.875 26.097 M39.136 38.260 C 38.536 38.381,38.321 38.731,38.196 39.785 L 38.085 40.724 34.097 40.861 C 29.570 41.016,29.637 40.992,29.637 42.467 L 29.637 43.547 27.041 43.670 C 24.052 43.812,23.974 43.857,23.974 45.414 L 23.974 46.395 21.472 46.531 C 18.564 46.690,18.553 46.695,18.390 48.133 L 18.266 49.229 17.063 49.358 C 15.665 49.508,15.661 49.512,15.528 50.980 L 15.427 52.100 14.367 52.103 C 12.906 52.107,12.776 52.230,12.682 53.692 L 12.603 54.932 11.540 54.934 C 10.102 54.938,9.982 55.050,9.866 56.491 L 9.768 57.720 8.676 57.843 C 7.244 58.005,7.237 58.018,7.079 60.917 L 6.943 63.410 5.690 63.465 C 4.447 63.520,4.436 63.526,4.387 64.087 C 4.361 64.398,4.293 65.004,4.238 65.433 L 4.137 66.212 3.118 66.297 C 1.518 66.429,1.510 66.445,1.510 69.651 C 1.510 71.180,1.456 72.954,1.389 73.592 L 1.268 74.752 0.634 74.752 L 0.000 74.752 0.000 92.968 L 0.000 111.185 0.661 111.185 C 1.055 111.185,1.328 111.280,1.337 111.420 C 1.346 111.550,1.412 113.300,1.484 115.309 C 1.632 119.445,1.599 119.363,3.198 119.583 L 4.101 119.707 4.282 122.172 C 4.486 124.965,4.523 125.029,6.023 125.228 C 7.045 125.363,7.166 125.548,7.171 126.987 C 7.174 127.949,7.490 128.174,8.838 128.174 L 9.772 128.174 9.851 129.414 C 9.944 130.876,10.074 130.998,11.540 131.002 L 12.603 131.005 12.682 132.245 C 12.776 133.707,12.906 133.830,14.371 133.834 L 15.434 133.837 15.516 134.972 C 15.618 136.380,15.765 136.529,17.153 136.630 L 18.267 136.710 18.390 137.805 C 18.555 139.256,18.613 139.287,21.481 139.432 L 23.958 139.557 24.013 140.795 C 24.080 142.304,24.040 142.286,27.324 142.312 L 29.637 142.331 29.637 143.441 C 29.637 145.037,29.566 145.011,34.149 145.121 L 38.088 145.215 38.178 146.147 C 38.340 147.835,37.345 147.711,50.708 147.711 L 62.516 147.711 62.877 147.266 C 63.105 146.984,63.237 146.526,63.237 146.021 L 63.237 145.223 67.229 145.099 C 71.805 144.956,71.732 144.982,71.732 143.464 L 71.732 142.377 74.251 142.242 C 77.284 142.079,77.253 142.096,77.357 140.647 L 77.440 139.500 78.349 139.500 C 80.014 139.500,80.227 139.320,80.227 137.908 L 80.227 136.685 81.595 136.629 L 82.964 136.574 83.019 135.220 L 83.074 133.866 84.482 133.804 L 85.890 133.742 85.890 139.431 L 85.890 145.119 84.846 145.250 C 83.215 145.453,83.228 145.409,83.106 151.275 L 83.002 156.264 82.440 156.377 C 82.131 156.438,81.560 156.489,81.171 156.489 C 80.411 156.489,80.234 156.866,80.229 158.505 C 80.227 159.095,80.209 159.106,79.141 159.226 C 77.534 159.406,77.584 159.359,77.584 160.698 L 77.584 161.899 76.215 162.073 L 74.847 162.246 74.791 163.521 L 74.735 164.795 73.753 164.797 C 71.972 164.802,71.921 164.844,71.921 166.313 L 71.921 167.598 69.271 167.659 C 66.227 167.730,66.265 167.708,66.261 169.372 L 66.258 170.458 53.538 170.458 L 40.819 170.458 40.737 169.322 C 40.625 167.771,40.611 167.764,37.665 167.664 L 35.111 167.577 35.111 166.645 C 35.111 165.375,34.870 164.983,34.090 164.983 C 32.505 164.983,32.279 164.838,32.279 163.815 C 32.279 162.421,32.067 162.152,30.967 162.152 C 29.566 162.152,29.448 162.062,29.448 160.987 C 29.448 159.395,29.432 159.385,26.548 159.231 L 24.015 159.095 23.939 157.894 C 23.837 156.289,24.232 156.395,18.311 156.395 C 12.383 156.395,12.785 156.286,12.681 157.912 L 12.603 159.132 11.436 159.132 C 9.956 159.132,9.816 159.282,9.816 160.868 L 9.816 162.152 8.987 162.152 C 7.347 162.152,7.268 162.343,7.268 166.303 C 7.268 170.231,7.283 170.269,8.883 170.269 L 9.765 170.269 9.861 171.612 C 9.974 173.180,10.076 173.282,11.540 173.286 L 12.603 173.289 12.681 174.509 C 12.776 176.006,12.762 175.992,14.259 176.087 L 15.479 176.165 15.482 177.228 C 15.486 178.648,15.584 178.752,17.050 178.889 L 18.311 179.007 18.311 180.002 C 18.311 181.501,18.362 181.559,19.813 181.702 L 21.094 181.828 21.200 182.857 C 21.341 184.219,21.542 184.426,22.723 184.428 C 23.255 184.428,24.391 184.483,25.248 184.550 L 26.805 184.671 26.805 185.386 C 26.805 187.211,26.770 187.196,31.503 187.366 L 35.300 187.502 35.300 188.135 L 35.300 188.768 53.516 188.768 L 71.732 188.768 71.732 188.108 C 71.732 187.713,71.827 187.440,71.968 187.431 C 72.098 187.422,73.848 187.356,75.856 187.284 C 79.997 187.136,79.910 187.172,80.133 185.554 C 80.271 184.550,80.240 184.566,82.397 184.381 C 82.959 184.333,82.964 184.321,83.019 183.077 L 83.074 181.822 85.610 181.686 C 88.527 181.530,88.522 181.532,88.670 179.903 L 88.774 178.764 89.857 178.764 C 91.149 178.764,91.285 178.633,91.459 177.226 C 91.601 176.079,91.805 175.932,93.252 175.932 C 93.959 175.932,94.131 175.658,94.287 174.280 L 94.421 173.101 95.310 173.101 C 96.836 173.101,97.179 172.311,97.207 168.738 L 97.216 167.679 98.267 167.571 C 99.789 167.413,99.794 167.404,99.948 164.529 L 100.084 162.007 101.113 161.922 C 102.780 161.783,102.719 161.995,102.833 155.965 L 102.934 150.683 103.886 150.570 C 104.410 150.508,104.971 150.325,105.133 150.163 C 105.587 149.709,105.679 47.377,105.226 46.923 C 105.028 46.726,104.585 46.626,103.903 46.626 L 102.879 46.626 102.879 45.412 C 102.879 43.842,102.655 43.605,101.166 43.605 L 100.047 43.605 100.045 42.992 C 100.044 42.655,99.992 42.072,99.930 41.697 L 99.817 41.015 96.188 40.881 C 91.863 40.721,86.786 40.912,86.321 41.252 C 86.037 41.460,85.985 42.083,85.883 46.558 C 85.820 49.347,85.752 51.326,85.734 50.956 C 85.670 49.654,84.745 49.303,81.312 49.277 L 80.227 49.269 80.227 48.053 C 80.227 46.640,80.196 46.610,78.623 46.484 L 77.437 46.389 77.356 45.265 C 77.253 43.847,77.286 43.864,74.257 43.702 L 71.732 43.567 71.732 42.561 C 71.732 41.947,71.628 41.452,71.465 41.289 C 71.204 41.028,67.800 40.776,64.512 40.775 L 63.237 40.774 63.237 39.945 C 63.237 39.411,63.109 38.959,62.877 38.671 L 62.516 38.226 51.031 38.201 C 44.715 38.188,39.362 38.214,39.136 38.260 M57.821 58.831 C 57.993 60.502,57.937 60.481,62.391 60.565 L 66.258 60.638 66.258 61.837 C 66.258 63.259,66.442 63.426,68.016 63.426 L 69.044 63.426 69.127 64.574 C 69.225 65.932,69.372 66.062,70.809 66.066 L 71.868 66.069 71.978 67.137 C 72.116 68.471,72.393 68.752,73.683 68.858 L 74.709 68.944 74.794 69.970 C 74.900 71.246,75.191 71.546,76.476 71.703 L 77.489 71.826 77.584 73.148 L 77.678 74.469 78.925 74.524 L 80.172 74.579 80.304 76.785 C 80.476 79.659,80.593 79.896,81.947 80.112 L 83.005 80.280 83.102 84.139 C 83.213 88.586,83.197 88.545,84.842 88.681 L 85.890 88.768 85.890 92.992 L 85.890 97.216 84.887 97.216 C 83.137 97.216,83.162 97.152,83.089 101.709 L 83.026 105.667 81.894 105.749 C 80.465 105.852,80.478 105.827,80.317 108.833 L 80.183 111.331 79.057 111.412 C 77.723 111.509,77.591 111.660,77.587 113.096 L 77.584 114.158 76.536 114.245 C 75.228 114.353,74.948 114.630,74.812 115.947 L 74.704 116.994 73.680 117.078 C 72.393 117.185,72.116 117.466,71.978 118.800 L 71.868 119.868 70.809 119.871 C 69.377 119.875,69.225 120.007,69.129 121.339 L 69.047 122.462 67.861 122.558 C 66.288 122.684,66.258 122.713,66.258 124.126 L 66.258 125.342 63.756 125.354 C 58.742 125.377,57.952 125.597,57.952 126.967 C 57.952 128.257,58.454 128.174,50.664 128.174 L 43.605 128.174 43.603 127.088 C 43.598 125.450,43.643 125.476,40.600 125.379 L 37.942 125.294 37.942 124.293 C 37.942 122.838,37.814 122.766,34.935 122.606 L 32.477 122.469 32.380 121.876 C 32.327 121.550,32.261 120.986,32.234 120.623 L 32.185 119.962 30.937 119.794 L 29.689 119.626 29.521 118.378 L 29.353 117.131 28.693 117.082 C 26.921 116.950,26.805 116.890,26.805 116.108 C 26.805 115.710,26.752 115.119,26.687 114.795 L 26.569 114.205 25.271 114.205 L 23.974 114.205 23.960 112.553 C 23.930 108.977,23.809 108.689,22.288 108.579 L 21.177 108.499 21.112 105.871 C 21.038 102.851,21.058 102.886,19.396 102.882 L 18.311 102.879 18.311 92.968 L 18.311 83.058 19.396 83.055 C 21.059 83.051,21.038 83.088,21.113 80.045 L 21.178 77.395 22.162 77.395 C 23.721 77.395,23.774 77.305,23.911 74.439 L 24.030 71.957 24.592 71.844 C 24.901 71.782,25.472 71.732,25.861 71.732 C 26.641 71.732,26.805 71.403,26.805 69.840 L 26.805 69.128 28.109 68.997 L 29.413 68.866 29.544 67.562 L 29.675 66.258 30.269 66.256 C 31.902 66.250,32.279 66.073,32.279 65.313 C 32.279 64.924,32.330 64.353,32.392 64.044 L 32.504 63.483 34.987 63.364 C 37.849 63.227,37.942 63.172,37.942 61.625 L 37.942 60.652 41.632 60.545 C 45.642 60.429,46.248 60.277,46.248 59.387 C 46.248 59.143,46.301 58.677,46.366 58.353 L 46.484 57.763 52.097 57.763 L 57.710 57.763 57.821 58.831 M184.654 59.029 C 184.722 60.571,184.674 60.549,187.957 60.576 L 190.260 60.595 190.317 61.755 C 190.381 63.092,190.463 63.168,192.002 63.333 L 193.065 63.448 193.151 64.482 C 193.268 65.896,193.341 65.937,196.107 66.144 L 198.532 66.326 198.658 68.405 C 198.845 71.486,199.002 71.732,200.783 71.732 C 201.415 71.732,201.416 71.733,201.416 72.664 C 201.416 74.355,201.591 74.563,203.016 74.563 L 204.247 74.563 204.247 77.030 C 204.247 80.150,204.286 80.227,205.848 80.227 L 207.057 80.227 207.115 85.597 C 207.180 91.641,207.089 91.312,208.746 91.485 L 209.925 91.608 209.871 93.043 L 209.816 94.479 208.827 94.578 C 207.100 94.752,207.182 94.399,207.111 101.941 L 207.049 108.542 205.763 108.542 C 204.184 108.542,204.247 108.411,204.247 111.672 L 204.247 114.205 202.946 114.205 C 201.441 114.205,201.416 114.233,201.416 115.919 L 201.416 117.036 200.460 117.036 C 199.017 117.036,198.825 117.209,198.672 118.639 L 198.540 119.868 197.453 119.868 C 196.159 119.868,196.030 119.992,195.859 121.404 L 195.731 122.469 194.468 122.631 L 193.204 122.794 193.036 124.045 L 192.867 125.297 190.630 125.430 C 187.916 125.592,187.632 125.752,187.493 127.195 L 187.399 128.174 185.110 128.192 C 181.844 128.219,181.890 128.198,181.822 129.739 L 181.767 131.005 174.719 131.005 L 167.672 131.005 167.589 129.870 C 167.471 128.226,167.607 128.276,163.087 128.210 L 159.132 128.152 159.132 126.931 C 159.132 125.523,158.919 125.342,157.255 125.342 L 156.347 125.342 156.262 124.315 C 156.145 122.908,155.927 122.699,154.578 122.699 L 153.469 122.699 153.469 121.703 C 153.469 120.214,153.146 119.868,151.759 119.868 L 150.637 119.868 150.637 118.872 C 150.637 117.385,150.314 117.036,148.936 117.036 L 147.822 117.036 147.767 115.668 L 147.711 114.299 146.343 114.244 L 144.974 114.188 144.974 111.592 C 144.974 108.579,144.955 108.542,143.449 108.542 L 142.377 108.542 142.237 100.807 C 142.160 96.552,142.160 90.181,142.237 86.649 L 142.376 80.227 143.298 80.227 C 144.832 80.227,144.974 79.955,144.974 77.017 L 144.974 74.563 146.059 74.561 C 147.716 74.556,147.702 74.579,147.772 71.675 L 147.834 69.150 149.188 68.978 L 150.543 68.806 150.599 67.532 L 150.654 66.258 151.763 66.258 C 153.435 66.258,153.469 66.228,153.469 64.756 L 153.469 63.483 155.951 63.373 C 158.844 63.244,158.964 63.178,159.092 61.642 L 159.178 60.595 160.240 60.583 C 163.950 60.542,164.606 60.255,164.606 58.671 L 164.606 57.763 174.602 57.763 L 184.598 57.763 184.654 59.029 " stroke="none" fill="#343434" fill-rule="evenodd"></path><path id="path4" d="" stroke="none" fill="#609c98" fill-rule="evenodd"></path></g></svg>